<svg xmlns="http://www.w3.org/2000/svg" xmlns:xlink="http://www.w3.org/1999/xlink" width="2100" zoomAndPan="magnify" viewBox="0 0 1574.88 1574.999936" height="2100" preserveAspectRatio="xMidYMid meet" version="1.0"><defs><clipPath id="8a860cf190"><path d="M 371.183594 371.242188 L 1203.695312 371.242188 L 1203.695312 1203.757812 L 371.183594 1203.757812 Z M 371.183594 371.242188 " clip-rule="nonzero"/></clipPath><clipPath id="3cfd97d8b2"><path d="M 787.441406 371.242188 C 557.546875 371.242188 371.183594 557.609375 371.183594 787.5 C 371.183594 1017.390625 557.546875 1203.757812 787.441406 1203.757812 C 1017.332031 1203.757812 1203.695312 1017.390625 1203.695312 787.5 C 1203.695312 557.609375 1017.332031 371.242188 787.441406 371.242188 Z M 787.441406 371.242188 " clip-rule="nonzero"/></clipPath><clipPath id="220bba00ff"><path d="M 0.183594 0.242188 L 832.695312 0.242188 L 832.695312 832.757812 L 0.183594 832.757812 Z M 0.183594 0.242188 " clip-rule="nonzero"/></clipPath><clipPath id="d6b1c45710"><path d="M 416.441406 0.242188 C 186.546875 0.242188 0.183594 186.609375 0.183594 416.5 C 0.183594 646.390625 186.546875 832.757812 416.441406 832.757812 C 646.332031 832.757812 832.695312 646.390625 832.695312 416.5 C 832.695312 186.609375 646.332031 0.242188 416.441406 0.242188 Z M 416.441406 0.242188 " clip-rule="nonzero"/></clipPath><clipPath id="43f6b5a362"><rect x="0" width="833" y="0" height="833"/></clipPath><clipPath id="e3e657ddfd"><path d="M 401 401 L 1174 401 L 1174 1174 L 401 1174 Z M 401 401 " clip-rule="nonzero"/></clipPath><clipPath id="547c25dc2e"><path d="M 423.410156 401.949219 L 1173.042969 423.46875 L 1151.523438 1173.105469 L 401.890625 1151.585938 Z M 423.410156 401.949219 " clip-rule="nonzero"/></clipPath><clipPath id="9b7b0e1b17"><path d="M 11 10 L 760 10 L 760 762 L 11 762 Z M 11 10 " clip-rule="nonzero"/></clipPath><clipPath id="2a2b1f4ff7"><path d="M 22.410156 0.949219 L 772.042969 22.46875 L 750.523438 772.105469 L 0.890625 750.585938 Z M 22.410156 0.949219 " clip-rule="nonzero"/></clipPath><clipPath id="dc910cad1c"><path d="M 771.984375 22.46875 L 22.351562 0.949219 L 0.832031 750.582031 L 750.464844 772.101562 Z M 771.984375 22.46875 " clip-rule="nonzero"/></clipPath><clipPath id="104fbb63c4"><path d="M 771.984375 22.46875 L 22.351562 0.949219 L 0.832031 750.582031 L 750.464844 772.101562 Z M 771.984375 22.46875 " clip-rule="nonzero"/></clipPath><clipPath id="dfeadbae46"><rect x="0" width="773" y="0" height="773"/></clipPath><clipPath id="689b5d000c"><path d="M 710 440 L 906 440 L 906 636 L 710 636 Z M 710 440 " clip-rule="nonzero"/></clipPath><clipPath id="befa1f7a56"><path d="M 654.746094 496.46875 L 850.039062 384.636719 L 961.871094 579.925781 L 766.582031 691.757812 Z M 654.746094 496.46875 " clip-rule="nonzero"/></clipPath><clipPath id="855c547611"><path d="M 752.394531 440.550781 L 821.585938 489.332031 L 905.953125 482.28125 L 857.171875 551.472656 L 864.226562 635.839844 L 795.03125 587.058594 L 710.664062 594.113281 L 759.445312 524.917969 Z M 752.394531 440.550781 " clip-rule="nonzero"/></clipPath><clipPath id="c69719bac0"><path d="M 0.585938 0.425781 L 196 0.425781 L 196 196 L 0.585938 196 Z M 0.585938 0.425781 " clip-rule="nonzero"/></clipPath><clipPath id="8c2dd6ce92"><path d="M -55.253906 56.46875 L 140.039062 -55.363281 L 251.871094 139.925781 L 56.582031 251.757812 Z M -55.253906 56.46875 " clip-rule="nonzero"/></clipPath><clipPath id="92e7540394"><path d="M 42.394531 0.550781 L 111.585938 49.332031 L 195.953125 42.28125 L 147.171875 111.472656 L 154.226562 195.839844 L 85.03125 147.058594 L 0.664062 154.113281 L 49.445312 84.917969 Z M 42.394531 0.550781 " clip-rule="nonzero"/></clipPath><clipPath id="13afc9d1da"><rect x="0" width="196" y="0" height="196"/></clipPath><clipPath id="58d60a2b52"><path d="M 763 588 L 1113 588 L 1113 938 L 763 938 Z M 763 588 " clip-rule="nonzero"/></clipPath><clipPath id="0418354243"><path d="M 792.042969 559.859375 L 1140.953125 616.746094 L 1084.070312 965.65625 L 735.160156 908.773438 Z M 792.042969 559.859375 " clip-rule="nonzero"/></clipPath><clipPath id="fc4d6c6cc1"><path d="M 966.496094 588.304688 L 1002.617188 716.296875 L 1112.511719 791.199219 L 984.515625 827.320312 L 909.613281 937.214844 L 873.496094 809.21875 L 763.601562 734.316406 L 891.59375 698.195312 Z M 966.496094 588.304688 " clip-rule="nonzero"/></clipPath><clipPath id="1bd1b2329f"><path d="M 0.382812 0.253906 L 349.554688 0.253906 L 349.554688 349.429688 L 0.382812 349.429688 Z M 0.382812 0.253906 " clip-rule="nonzero"/></clipPath><clipPath id="59fa739e8c"><path d="M 29.042969 -28.140625 L 377.953125 28.746094 L 321.070312 377.65625 L -27.839844 320.773438 Z M 29.042969 -28.140625 " clip-rule="nonzero"/></clipPath><clipPath id="65e076f0f3"><path d="M 203.496094 0.304688 L 239.617188 128.296875 L 349.511719 203.199219 L 221.515625 239.320312 L 146.613281 349.214844 L 110.496094 221.21875 L 0.601562 146.316406 L 128.59375 110.195312 Z M 203.496094 0.304688 " clip-rule="nonzero"/></clipPath><clipPath id="d03596834f"><rect x="0" width="350" y="0" height="350"/></clipPath></defs><g clip-path="url(#8a860cf190)"><g clip-path="url(#3cfd97d8b2)"><g transform="matrix(1, 0, 0, 1, 371, 371)"><g clip-path="url(#43f6b5a362)"><g clip-path="url(#220bba00ff)"><g clip-path="url(#d6b1c45710)"><path fill="#ff751f" d="M 0.183594 0.242188 L 832.695312 0.242188 L 832.695312 832.757812 L 0.183594 832.757812 Z M 0.183594 0.242188 " fill-opacity="1" fill-rule="nonzero"/></g></g></g></g></g></g><g clip-path="url(#e3e657ddfd)"><g clip-path="url(#547c25dc2e)"><g transform="matrix(1, 0, 0, 1, 401, 401)"><g clip-path="url(#dfeadbae46)"><g clip-path="url(#9b7b0e1b17)"><g clip-path="url(#2a2b1f4ff7)"><g clip-path="url(#dc910cad1c)"><g clip-path="url(#104fbb63c4)"><path fill="#ffffff" d="M 372.824219 761.085938 C 532.78125 765.675781 677.363281 667.742188 732.644531 517.394531 L 759.828125 443.34375 L 702.433594 497.390625 C 644.578125 551.835938 569.070312 580.570312 489.761719 578.292969 C 325.675781 573.582031 196 436.242188 200.710938 272.15625 C 202.988281 192.847656 236.007812 119.078125 293.640625 64.550781 L 350.929688 10.316406 L 275.441406 33.242188 C 122.171875 79.734375 16.105469 218.421875 11.511719 378.414062 C 5.625 583.53125 167.710938 755.195312 372.824219 761.085938 Z M 372.824219 761.085938 " fill-opacity="1" fill-rule="nonzero"/></g></g></g></g></g></g></g></g><g clip-path="url(#689b5d000c)"><g clip-path="url(#befa1f7a56)"><g clip-path="url(#855c547611)"><g transform="matrix(1, 0, 0, 1, 710, 440)"><g clip-path="url(#13afc9d1da)"><g clip-path="url(#c69719bac0)"><g clip-path="url(#8c2dd6ce92)"><g clip-path="url(#92e7540394)"><path fill="#ffffff" d="M -55.253906 56.46875 L 140.039062 -55.363281 L 251.871094 139.925781 L 56.582031 251.757812 Z M -55.253906 56.46875 " fill-opacity="1" fill-rule="nonzero"/></g></g></g></g></g></g></g></g><g clip-path="url(#58d60a2b52)"><g clip-path="url(#0418354243)"><g clip-path="url(#fc4d6c6cc1)"><g transform="matrix(1, 0, 0, 1, 763, 588)"><g clip-path="url(#d03596834f)"><g clip-path="url(#1bd1b2329f)"><g clip-path="url(#59fa739e8c)"><g clip-path="url(#65e076f0f3)"><path fill="#ffffff" d="M 29.042969 -28.140625 L 377.953125 28.746094 L 321.070312 377.65625 L -27.839844 320.773438 Z M 29.042969 -28.140625 " fill-opacity="1" fill-rule="nonzero"/></g></g></g></g></g></g></g></g></svg>