<?xml version="1.0" encoding="UTF-8"?>
<svg id="katman_1" data-name="katman 1" xmlns="http://www.w3.org/2000/svg" viewBox="0 0 434.45 341.88">
  <defs>
    <style>
      .cls-1, .cls-2 {
        fill: #f18731;
      }

      .cls-2 {
        stroke: #f18731;
        stroke-linecap: round;
        stroke-miterlimit: 10;
      }
    </style>
  </defs>
  <path class="cls-1" d="M169.98,1.24c-5.83,32.14-14.53,64.16-21.27,96.11-6.73,30.71-13.36,65.43-20.34,96.25-4.8,21.44-6.37,43.5-12.57,64.68-3.08,10.79-7.62,20.99-12.56,31.03-9.69,20.46-24.89,39.62-46.28,48.6-8.39,3.2-17.75,5.31-26.66,3.01-14.87-4.16-25.39-17.96-28.86-32.48-2.05-8.68-1.5-17.24-.85-25.85,2.64-25.68,16.93-49.61,36.94-65.61,13.65-10.32,31.71-16.81,48.96-15.12,4.84.41,11.75,2.3,16.55,3.39,3.21.74,6.63,1.3,9.92,1.86,6.74,1.44,13.83,2.61,20.34.5,24.41-8.2,38.37-36.7,49.96-58.2,7.6-14.4,14.55-29.07,20.45-44.23,9.82-25.29,17.71-51.38,24.31-77.71,1.01-3.49,4.16-18.51,5.72-21.95.09-.18.19-.39.42-.73.36-.31.23-.85,2.27-1.83,3.65-1.23,6.03,2.44,5.66,2.5.4,1.05.34,1.22.42,1.94.03,3.67-.74,7.22-1.23,10.61-4.47,25.3-10.2,55.7-15.38,80.75-6.55,30.58-13.81,68.32-17.3,97.05-.39,2.26-.59,4.56-.65,6.86-.1,4.18.24,8.34,1.29,12.38.42,2.6,2.31,4.54,4.85,5.87,1.8.64,3.88-.33,5.75-1.21,5.21-2.62,9.15-6.86,12.84-11.7,3.63-4.91,6.8-10.38,9.26-16.02,6.33-14.27,10.94-28.96,15.96-43.84.48-1.19.9-2.29,2.21-3.23.18-.38,2.89-1.34,4.55-.18,1.51,1,1.53,1.62,1.76,1.92.52,1.17.51,1.96.58,2.78.09,10.89-.56,21.54-.35,32.37.2,4.18-.43,9.37,1.93,12.47,1.93,2.5,6.61,2.73,9.43,1.42,2.85-1.15,4.62-4.61,6.09-7.47,3.58-9.28,6.87-22.56,10.24-31.97,1-2.82,1.75-5.12,3.31-7.96.57-1.06,1.76-2.49,3.34-2.94.99-.29,2.19-.27,3.25.28,1.06.54,1.37,1.03,1.84,1.69,1.44,2.58,1.02,5.19,1.28,7.81.26,7.05.29,15.49,2.18,22.18.6,2.02,1.38,3.3,2.87,4.55,1.21.99,2.42,1.68,3.84,1.49,6.08-1.44,12.52-16.03,15.27-21.71,1.02-2.3,1.93-4.64,2.92-7.11.94-2.28,1.65-4.41,3.63-6.56,2.14-2.35,6.59-2.32,8.62.57,1.66,2.18,2.19,5.11,3.15,7.49,0,0,.64,1.8.64,1.8.99,3.58,3.67,6.09,6.89,8.09,9.06,6.23,20.26-9.88,24.92-16.52,1.01-1.58,3.3-4.89,4.37-6.46,15.58-22.29,28.01-46.72,42.59-69.65.65-1.13,1.39-2.21,3.14-2.72.31-.09.64.08.73.39.48,1.76-.05,2.95-.68,4.1,0,0-1.75,3.49-1.75,3.49l-3.54,6.96c-6.85,13.36-15.07,28.03-21.89,41.41-4.61,9.25-10.34,18.51-16.23,27.04-6.72,9.62-17.65,24.51-31.39,21.02-6.21-2.17-12.19-6.98-14.51-13.43-.62-1.63-1.68-4.78-2.28-6.46-.2-.55-.41-1.09-.56-1.41-.07-.14-.14-.23-.05-.12.27.43,1.18.86,1.7.87.25.03.62,0,.91-.09.61-.18.87-.43.95-.51-1.83,3.15-3.05,7.51-4.76,11.09-2.21,4.99-4.65,9.6-7.47,14.33-3.87,6.64-11.16,15.02-19.91,11.6-8.51-3.3-10.78-11.47-11.61-19.51-.81-6.32-.6-14.03-1.26-20.27.17.61.84,1.49,1.79,1.96,1.42.72,3.28.4,4.21-.6.19-.22.06-.08,0,.05-.39.67-.9,1.85-1.33,2.96-3.73,9.89-7.21,23.26-10.64,33.31-3.52,9.87-9.94,17.33-21.35,15.87-7.61-.98-12.34-7.18-12.85-14.53-.62-10.6-.23-21.19-.03-31.75.06-2.93.19-6.24.06-8.79.04.11,0,.14.25.72.19.23.17.76,1.61,1.73,1.6,1.1,4.21.19,4.33-.15.84-.65.79-.71,1.09-1.15-4.69,13.57-8.97,27.66-14.7,41-3.05,7.54-6.88,14.79-11.77,21.34-5.81,7.99-19.19,21-30.04,14.95-3.39-2.01-6.16-4.71-7.68-8.53-2.58-8.18-2.81-16.8-1.45-25.2,1.17-7.64,2.9-22.45,4.73-32.67,7.22-41.78,17.58-87.07,24.91-128.92,1.4-8.19,3.31-16.61,3.98-24.78,0,.02,0,0,.01.13.04.11,0,.18.23.81-.41-.09,1.82,3.39,5.29,2.24,1.89-.91,1.65-1.3,1.91-1.47.13-.2.15-.26.17-.28.02-.03.01-.03,0,0-3.11,11.04-6.09,25.26-9.24,36.22-8.75,31.87-19.27,63.43-33.89,93.14-7.45,14.86-14.96,29.56-24.02,43.55-10.5,16.1-27.28,34.21-47.81,35.04-5.24.22-10.14-.83-15.13-1.81-3.38-.58-6.86-1.16-10.24-1.93-3.15-.77-10.44-2.55-13.7-3.02-8.77-1.28-17.86.14-26.2,3.17-11.68,3.99-21.89,11.3-29.92,20.68-12.86,14.68-21.92,33.3-22.76,52.94-.32,6.37-.6,13.26.93,19.27,2.74,11.62,11.19,23.03,22.88,26.38,7.1,1.79,14.73-.14,21.46-2.66,19.25-8.07,33.23-25.92,42.03-44.56,4.73-9.57,9.14-19.42,12.08-29.7,2.96-10.39,5.01-20.88,6.7-31.58,2.52-18.84,8.66-45.74,12.81-64.56,1.85-9.31,4.79-22.66,6.57-32.13,5.6-26.68,12.9-53.44,20.72-79.57,3.19-11.01,10.06-36.1,13.16-47.39.15-.56.73-.88,1.28-.73.53.14.85.67.75,1.2h0Z"/>
  <path class="cls-2" d="M421.37,153.63c-2.34-2.04-1.29-6.15-1.16-6.64.78-2.91,3.3-5.78,6.76-6.22,1.83-.23,4.9.09,6.3,2.28,1.8,2.81-.31,6.89-2.53,8.92-2.42,2.22-6.93,3.79-9.37,1.66Z"/>
</svg>